<svg version="1.1" id="Layer_1" xmlns="http://www.w3.org/2000/svg" xmlns:xlink="http://www.w3.org/1999/xlink" x="0px" y="0px" viewBox="0 0 338.6 69.8" style="enable-background:new 0 0 338.6 69.8;" xml:space="preserve" width="338.6"  height="69.8" >
<style type="text/css">
	.st0{fill:url(#SVGID_1_);}
	.st1{fill:url(#SVGID_2_);}
	.st2{fill:url(#SVGID_3_);}
	.st3{fill:url(#SVGID_4_);}
	.st4{fill:url(#SVGID_5_);}
	.st5{fill:url(#TOON_1_);}
	.st6{fill:url(#SVGID_6_);}
</style>
<g>
	<linearGradient id="SVGID_1_" gradientUnits="userSpaceOnUse" x1="6.5091" y1="2.6399" x2="335.9508" y2="72.1887">
		<stop offset="0" style="stop-color:#FF1F4E"/>
		<stop offset="1" style="stop-color:#FF5F3A"/>
	</linearGradient>
	<polygon class="st0" points="101.8,17.9 92.1,4.3 82.8,4.3 82.8,4.3 82.8,39.5 93.9,39.5 93.9,26 103.6,39.5 112.9,39.5 112.9,4.3    101.8,4.3  "/>
	<linearGradient id="SVGID_2_" gradientUnits="userSpaceOnUse" x1="3.3125" y1="17.7813" x2="332.7542" y2="87.3301">
		<stop offset="0" style="stop-color:#FF1F4E"/>
		<stop offset="1" style="stop-color:#FF5F3A"/>
	</linearGradient>
	<polygon class="st1" points="22.9,17.7 13.7,4.3 4.4,4.3 4.4,39.5 15.7,39.5 15.7,26.9 22.9,37.4 30.1,26.9 30.1,39.5 41.4,39.5    41.4,4.3 32.1,4.3  "/>
	<linearGradient id="SVGID_3_" gradientUnits="userSpaceOnUse" x1="4.7074" y1="11.1741" x2="334.1491" y2="80.7229">
		<stop offset="0" style="stop-color:#FF1F4E"/>
		<stop offset="1" style="stop-color:#FF5F3A"/>
	</linearGradient>
	<path class="st2" d="M58.1,4.3L44.7,39.5h11.1l1.2-3.2h10.7l1.2,3.2h11.1L66.5,4.3H58.1z M62.4,29.5c-1.9,0-3.5-1.6-3.5-3.5   c0-1.9,1.6-3.5,3.5-3.5c1.9,0,3.5,1.6,3.5,3.5C65.9,28,64.3,29.5,62.4,29.5z"/>
	<linearGradient id="SVGID_4_" gradientUnits="userSpaceOnUse" x1="8.0649" y1="-4.7299" x2="337.5066" y2="64.8189">
		<stop offset="0" style="stop-color:#FF1F4E"/>
		<stop offset="1" style="stop-color:#FF5F3A"/>
	</linearGradient>
	<path class="st3" d="M150.7,19.1h-13.6v7.4h3.2c-1.6,1.9-3.5,2.9-5.8,2.9c-1,0-2-0.2-2.9-0.6c-1.8-0.8-3.2-2.2-3.9-3.9   c-0.8-1.8-0.8-3.9,0-5.8c0.4-0.9,0.9-1.7,1.6-2.4c1.4-1.4,3.3-2.2,5.3-2.2c1.7,0,3.3,0.6,4.7,1.7l6.3-9.1c-0.4-0.3-0.7-0.5-1-0.7   c-0.3-0.2-0.6-0.4-0.8-0.5c-0.2-0.1-0.5-0.3-0.7-0.4c-0.2-0.1-0.5-0.3-0.8-0.4c-1.2-0.6-2.5-1-3.8-1.2c-1.3-0.3-2.7-0.4-4.1-0.4   c-2.5,0-4.9,0.5-7.2,1.5c-4.4,1.9-8,5.4-9.8,9.9c-1.9,4.6-1.9,9.8,0,14.4c1.9,4.4,5.4,8,9.9,9.9c5.4,2.3,11.5,1.9,16.5-1.1   c2.8-1.7,5.1-4,6.9-7.1V19.1z"/>
	<linearGradient id="SVGID_5_" gradientUnits="userSpaceOnUse" x1="9.1767" y1="-9.9963" x2="338.6184" y2="59.5525">
		<stop offset="0" style="stop-color:#FF1F4E"/>
		<stop offset="1" style="stop-color:#FF5F3A"/>
	</linearGradient>
	<path class="st4" d="M171.3,4.3h-8.5l-13.4,35.2h11.1l1.2-3.2h10.7l1.2,3.2h11.1L171.3,4.3z M167.2,29.5c-1.9,0-3.5-1.6-3.5-3.5   c0-1.9,1.6-3.5,3.5-3.5c1.9,0,3.5,1.6,3.5,3.5C170.7,28,169.1,29.5,167.2,29.5z"/>
	<linearGradient id="TOON_1_" gradientUnits="userSpaceOnUse" x1="13.5577" y1="-30.7485" x2="342.9994" y2="38.8003">
		<stop offset="0" style="stop-color:#FF1F4E"/>
		<stop offset="1" style="stop-color:#FF5F3A"/>
	</linearGradient>
	<path id="TOON" class="st5" d="M197.5,13.5H191V4.3h24.7v9.2h-6.6v26h-11.6V13.5z M219.9,14.7c1.9-4.4,5.4-8,9.9-9.8   c4.6-1.9,9.8-1.9,14.4,0c4.4,1.9,8,5.4,9.9,9.8c1.9,4.6,1.9,9.8,0,14.4c-1.9,4.4-5.4,8-9.9,9.9c-4.6,1.9-9.8,1.9-14.4,0   c-4.4-1.9-8-5.4-9.9-9.9C217.9,24.5,217.9,19.3,219.9,14.7L219.9,14.7z M230.1,24.8c0.8,1.8,2.2,3.2,3.9,3.9c1.8,0.8,3.9,0.8,5.8,0   c1.8-0.8,3.2-2.2,3.9-3.9c0.8-1.8,0.8-3.9,0-5.8c-0.8-1.8-2.2-3.2-3.9-3.9c-1.8-0.8-3.9-0.8-5.8,0c-1.8,0.8-3.2,2.2-3.9,3.9   C229.3,20.9,229.3,23,230.1,24.8z M259.5,14.7c1.9-4.4,5.4-8,9.9-9.8c4.6-1.9,9.8-1.9,14.4,0c4.4,1.9,8,5.4,9.9,9.8   c1.9,4.6,1.9,9.8,0,14.4c-1.9,4.4-5.4,8-9.9,9.9c-4.6,1.9-9.8,1.9-14.4,0c-4.4-1.9-8-5.4-9.9-9.9C257.6,24.5,257.6,19.3,259.5,14.7   L259.5,14.7z M269.7,24.8c0.8,1.8,2.2,3.2,3.9,3.9c1.8,0.8,3.9,0.8,5.8,0c1.8-0.8,3.2-2.2,3.9-3.9c0.8-1.8,0.8-3.9,0-5.8   c-0.8-1.8-2.2-3.2-3.9-3.9c-1.8-0.8-3.9-0.8-5.8,0c-1.8,0.8-3.2,2.2-3.9,3.9C269,20.9,269,23,269.7,24.8L269.7,24.8z M298.6,4.3   h9.3l9.7,13.6V4.3h11.1v35.2h-9.4L309.7,26v13.5h-11.1L298.6,4.3L298.6,4.3z"/>
	<linearGradient id="SVGID_6_" gradientUnits="userSpaceOnUse" x1="6.3793" y1="3.2544" x2="335.821" y2="72.8032">
		<stop offset="0" style="stop-color:#FF1F4E"/>
		<stop offset="1" style="stop-color:#FF5F3A"/>
	</linearGradient>
	<path class="st6" d="M254.9,65.5c-6.2,0-12.3-1.8-17.9-5.3l-4.1-2.6l5.1-8.2l4.1,2.6c13.8,8.7,26.2-0.2,26.3-0.3l3.9-2.9l5.7,7.8   l-3.9,2.9c-0.5,0.3-4.7,3.4-11.3,5C260.2,65.2,257.5,65.5,254.9,65.5z"/>
</g>
</svg>